#tb 0: 1001/30000
#media_type 0: video
#codec_id 0: rawvideo
#dimensions 0: 720x480
#sar 0: 0/1
0,          0,          0,        1,  1382400, 0xa3e49817
0,          1,          1,        1,  1382400, 0x544fdfac
0,          2,          2,        1,  1382400, 0x84964e11
0,          3,          3,        1,  1382400, 0xc608c8d1
0,          4,          4,        1,  1382400, 0xf2f1404f
0,          5,          5,        1,  1382400, 0x5a3100ba
0,          6,          6,        1,  1382400, 0x3727baa9
0,          7,          7,        1,  1382400, 0x894f07db
0,          8,          8,        1,  1382400, 0x3ef27d46
0,          9,          9,        1,  1382400, 0x1f90880d
